<svg width="16" height="16" viewBox="0 0 16 16" fill="none" xmlns="http://www.w3.org/2000/svg">
<path d="M0.772388 0.605468L15.8984 0.605469L15.8984 2.28614L0.772388 2.28614L0.772388 0.605468ZM0.772387 14.0508L15.8984 14.0508L15.8984 15.7315L0.772387 15.7315L0.772387 14.0508ZM7.49508 3.96681L9.17575 3.96681L9.17575 5.64749L7.49508 5.64749L7.49508 3.96681ZM0.772388 7.32816L2.45306 7.32816L2.45306 9.00883L0.772388 9.00883L0.772388 7.32816ZM4.13373 7.32816L5.8144 7.32816L5.8144 9.00883L4.13373 9.00883L4.13373 7.32816ZM7.49508 7.32816L9.17575 7.32816L9.17575 9.00883L7.49508 9.00883L7.49508 7.32816ZM10.8564 7.32816L12.5371 7.32816L12.5371 9.00883L10.8564 9.00883L10.8564 7.32816ZM14.2178 7.32816L15.8984 7.32816L15.8984 9.00883L14.2178 9.00883L14.2178 7.32816ZM7.49508 10.6895L9.17575 10.6895L9.17575 12.3702L7.49508 12.3702L7.49508 10.6895Z" fill="url(#paint0_radial_263_2452)" fill-opacity="0.8"/>
<defs>
<radialGradient id="paint0_radial_263_2452" cx="0" cy="0" r="1" gradientUnits="userSpaceOnUse" gradientTransform="translate(15.8984 0.605469) rotate(135) scale(21.3915 16.9775)">
<stop stop-color="#020202"/>
<stop offset="1" stop-color="#646464"/>
</radialGradient>
</defs>
</svg>
