<svg width="24" height="24" viewBox="0 0 24 24" fill="none" xmlns="http://www.w3.org/2000/svg">
<path d="M24 22V2C24 1.46957 23.7893 0.960859 23.4142 0.585786C23.0391 0.210714 22.5304 0 22 0L2 0C1.46957 0 0.960859 0.210714 0.585787 0.585786C0.210714 0.960859 0 1.46957 0 2V22C0 22.5304 0.210714 23.0391 0.585787 23.4142C0.960859 23.7893 1.46957 24 2 24H22C22.5304 24 23.0391 23.7893 23.4142 23.4142C23.7893 23.0391 24 22.5304 24 22ZM2 22V2L22 2V22H2ZM12 6C12.2652 6 12.5196 6.10536 12.7071 6.29289C12.8946 6.48043 13 6.73478 13 7L13 14.5863L15.2925 12.2925C15.4801 12.1049 15.7346 11.9994 16 11.9994C16.2654 11.9994 16.5199 12.1049 16.7075 12.2925C16.8951 12.4801 17.0006 12.7346 17.0006 13C17.0006 13.2654 16.8951 13.5199 16.7075 13.7075L12.7075 17.7075C12.6146 17.8005 12.5043 17.8742 12.3829 17.9246C12.2615 17.9749 12.1314 18.0008 12 18.0008C11.8686 18.0008 11.7385 17.9749 11.6171 17.9246C11.4957 17.8742 11.3854 17.8005 11.2925 17.7075L7.2925 13.7075C7.10486 13.5199 6.99944 13.2654 6.99944 13C6.99944 12.7346 7.10486 12.4801 7.2925 12.2925C7.48014 12.1049 7.73464 11.9994 8 11.9994C8.26536 11.9994 8.51986 12.1049 8.7075 12.2925L11 14.5863L11 7C11 6.73478 11.1054 6.48043 11.2929 6.29289C11.4804 6.10536 11.7348 6 12 6Z" fill="#8E8E8E"/>
</svg>
