<svg width="24" height="24" viewBox="0 0 24 24" fill="none" xmlns="http://www.w3.org/2000/svg">
<path d="M0 2L0 22C0 22.5304 0.210714 23.0391 0.585786 23.4142C0.960859 23.7893 1.46957 24 2 24L22 24C22.5304 24 23.0391 23.7893 23.4142 23.4142C23.7893 23.0391 24 22.5304 24 22L24 2C24 1.46957 23.7893 0.960859 23.4142 0.585787C23.0391 0.210714 22.5304 0 22 0L2 0C1.46957 0 0.960859 0.210714 0.585786 0.585787C0.210714 0.960859 0 1.46957 0 2ZM22 2L22 22L2 22L2 2L22 2ZM12 18C11.7348 18 11.4804 17.8946 11.2929 17.7071C11.1054 17.5196 11 17.2652 11 17L11 9.41375L8.7075 11.7075C8.51986 11.8951 8.26536 12.0006 8 12.0006C7.73464 12.0006 7.48014 11.8951 7.2925 11.7075C7.10486 11.5199 6.99944 11.2654 6.99944 11C6.99944 10.7346 7.10486 10.4801 7.2925 10.2925L11.2925 6.2925C11.3854 6.19952 11.4957 6.12576 11.6171 6.07544C11.7385 6.02512 11.8686 5.99921 12 5.99921C12.1314 5.99921 12.2615 6.02512 12.3829 6.07544C12.5043 6.12576 12.6146 6.19952 12.7075 6.2925L16.7075 10.2925C16.8951 10.4801 17.0006 10.7346 17.0006 11C17.0006 11.2654 16.8951 11.5199 16.7075 11.7075C16.5199 11.8951 16.2654 12.0006 16 12.0006C15.7346 12.0006 15.4801 11.8951 15.2925 11.7075L13 9.41375L13 17C13 17.2652 12.8946 17.5196 12.7071 17.7071C12.5196 17.8946 12.2652 18 12 18Z" fill="#1E1E1E"/>
</svg>
